<svg width="64" height="64" viewBox="0 0 64 64" fill="none" xmlns="http://www.w3.org/2000/svg">
<g filter="url(#filter0_d_1_15)">
<path d="M32 56C45.2548 56 56 45.2548 56 32C56 18.7452 45.2548 8 32 8C18.7452 8 8 18.7452 8 32C8 45.2548 18.7452 56 32 56Z" fill="white" shape-rendering="crispEdges"/>
<path d="M32 56C45.2548 56 56 45.2548 56 32C56 18.7452 45.2548 8 32 8C18.7452 8 8 18.7452 8 32C8 45.2548 18.7452 56 32 56Z" stroke="url(#paint0_linear_1_15)" stroke-opacity="0.25" stroke-width="5" shape-rendering="crispEdges"/>
</g>
<g filter="url(#filter1_bd_1_15)">
<path d="M11.3281 46.0156L8.63246 54.1026C8.37187 54.8844 9.11561 55.6281 9.89737 55.3675L17.9844 52.6719C19.3099 52.23 20.5144 51.4856 21.5023 50.4977L54.9393 17.0607C55.5251 16.4749 55.5251 15.5251 54.9393 14.9393L48.8549 8.85486C48.3559 8.35589 47.5766 8.27217 46.9831 8.65375L35.2848 16.174C34.6786 16.5638 34.6712 17.4475 35.2709 17.8473L37 19L30 26L13.5023 42.4977C12.5144 43.4856 11.77 44.6901 11.3281 46.0156Z" fill="url(#paint1_linear_1_15)" shape-rendering="crispEdges"/>
</g>
<defs>
<filter id="filter0_d_1_15" x="1.5" y="1.5" width="61" height="61" filterUnits="userSpaceOnUse" color-interpolation-filters="sRGB">
<feFlood flood-opacity="0" result="BackgroundImageFix"/>
<feColorMatrix in="SourceAlpha" type="matrix" values="0 0 0 0 0 0 0 0 0 0 0 0 0 0 0 0 0 0 127 0" result="hardAlpha"/>
<feOffset/>
<feGaussianBlur stdDeviation="2"/>
<feComposite in2="hardAlpha" operator="out"/>
<feColorMatrix type="matrix" values="0 0 0 0 0 0 0 0 0 0 0 0 0 0 0 0 0 0 0.25 0"/>
<feBlend mode="normal" in2="BackgroundImageFix" result="effect1_dropShadow_1_15"/>
<feBlend mode="normal" in="SourceGraphic" in2="effect1_dropShadow_1_15" result="shape"/>
</filter>
<filter id="filter1_bd_1_15" x="2.57941" y="2.41548" width="58.7993" height="61.0051" filterUnits="userSpaceOnUse" color-interpolation-filters="sRGB">
<feFlood flood-opacity="0" result="BackgroundImageFix"/>
<feGaussianBlur in="BackgroundImage" stdDeviation="3"/>
<feComposite in2="SourceAlpha" operator="in" result="effect1_backgroundBlur_1_15"/>
<feColorMatrix in="SourceAlpha" type="matrix" values="0 0 0 0 0 0 0 0 0 0 0 0 0 0 0 0 0 0 127 0" result="hardAlpha"/>
<feOffset dy="4"/>
<feGaussianBlur stdDeviation="2"/>
<feComposite in2="hardAlpha" operator="out"/>
<feColorMatrix type="matrix" values="0 0 0 0 0 0 0 0 0 0 0 0 0 0 0 0 0 0 0.25 0"/>
<feBlend mode="normal" in2="effect1_backgroundBlur_1_15" result="effect2_dropShadow_1_15"/>
<feBlend mode="normal" in="SourceGraphic" in2="effect2_dropShadow_1_15" result="shape"/>
</filter>
<linearGradient id="paint0_linear_1_15" x1="32" y1="8" x2="32" y2="56" gradientUnits="userSpaceOnUse">
<stop/>
<stop offset="1" stop-opacity="0"/>
</linearGradient>
<linearGradient id="paint1_linear_1_15" x1="56" y1="8" x2="8" y2="56" gradientUnits="userSpaceOnUse">
<stop stop-opacity="0.25"/>
<stop offset="1"/>
</linearGradient>
</defs>
</svg>
