<svg width="181" height="60" viewBox="0 0 181 60" fill="none" xmlns="http://www.w3.org/2000/svg">
<g clip-path="url(#clip0_1_2)">
<path d="M3.11719 7.44531C2.91406 6.92969 2.72656 6.50781 2.55469 6.17969C2.38281 5.85156 2.19531 5.59375 1.99219 5.40625C1.78906 5.21875 1.54688 5.09375 1.26562 5.03125C1 4.95312 0.65625 4.91406 0.234375 4.91406V4.30469C0.53125 4.33594 0.945312 4.35156 1.47656 4.35156C2.00781 4.35156 2.5625 4.35156 3.14062 4.35156C3.71875 4.35156 4.27344 4.35156 4.80469 4.35156C5.35156 4.33594 5.78125 4.32031 6.09375 4.30469V4.9375C5.60938 4.95312 5.23438 4.99219 4.96875 5.05469C4.71875 5.11719 4.54688 5.23437 4.45312 5.40625C4.375 5.59375 4.36719 5.84375 4.42969 6.15625C4.50781 6.46875 4.64844 6.88281 4.85156 7.39844L9.46875 19.7734L14.1797 7.16406C14.3516 6.67969 14.4531 6.29688 14.4844 6.01562C14.5312 5.71875 14.5078 5.49219 14.4141 5.33594C14.3047 5.17969 14.1172 5.07812 13.8516 5.03125C13.6016 4.98438 13.2656 4.95312 12.8438 4.9375V4.30469C13.1406 4.32031 13.4922 4.33594 13.8984 4.35156C14.3203 4.36719 14.7422 4.375 15.1641 4.375C15.5859 4.375 15.9844 4.375 16.3594 4.375C16.7344 4.375 17.0312 4.35938 17.25 4.32812V4.91406C16.9375 4.91406 16.6719 4.94531 16.4531 5.00781C16.25 5.07031 16.0703 5.17969 15.9141 5.33594C15.7422 5.50781 15.5781 5.75 15.4219 6.0625C15.2812 6.375 15.1172 6.78125 14.9297 7.28125L9.28125 22.2109H8.90625L3.11719 7.44531ZM20.5781 19.6562C20.5781 20.3281 20.6875 20.7578 20.9062 20.9453C21.125 21.1328 21.5781 21.2266 22.2656 21.2266V21.8125C22.0469 21.8125 21.8438 21.8125 21.6562 21.8125C21.4688 21.8125 21.2812 21.8047 21.0938 21.7891C20.9062 21.7891 20.7109 21.7891 20.5078 21.7891C20.3203 21.7734 20.1172 21.7656 19.8984 21.7656C19.6641 21.7656 19.4453 21.7734 19.2422 21.7891C19.0547 21.7891 18.8672 21.7891 18.6797 21.7891C18.4766 21.7891 18.2734 21.7969 18.0703 21.8125C17.8828 21.8125 17.6797 21.8125 17.4609 21.8125V21.2266C18.1484 21.2266 18.6016 21.1328 18.8203 20.9453C19.0391 20.7578 19.1484 20.3281 19.1484 19.6562V13.9141C19.1484 13.4922 19.1328 13.1562 19.1016 12.9062C19.0703 12.6562 19.0078 12.4609 18.9141 12.3203C18.8203 12.1797 18.6797 12.0859 18.4922 12.0391C18.3047 11.9922 18.0469 11.9688 17.7188 11.9688V11.4766C18.2188 11.3984 18.6719 11.2812 19.0781 11.125C19.5 10.9688 19.8906 10.7266 20.25 10.3984H20.6719C20.625 10.8203 20.5938 11.2734 20.5781 11.7578C20.5781 12.2266 20.5781 12.6484 20.5781 13.0234V19.6562ZM18.6562 5.26562C18.6562 4.95312 18.7656 4.67969 18.9844 4.44531C19.2188 4.21094 19.4922 4.09375 19.8047 4.09375C20.1172 4.09375 20.3906 4.21094 20.625 4.44531C20.8594 4.67969 20.9766 4.95312 20.9766 5.26562C20.9766 5.57813 20.8594 5.85156 20.625 6.08594C20.3906 6.30469 20.1172 6.41406 19.8047 6.41406C19.4922 6.41406 19.2188 6.30469 18.9844 6.08594C18.7656 5.85156 18.6562 5.57813 18.6562 5.26562ZM25.6172 6.34375C25.6172 5.9375 25.5938 5.61719 25.5469 5.38281C25.5156 5.13281 25.4375 4.9375 25.3125 4.79688C25.2031 4.67187 25.0391 4.59375 24.8203 4.5625C24.6172 4.53125 24.3516 4.51562 24.0234 4.51562V4.04688C24.5234 3.95312 25.0078 3.8125 25.4766 3.625C25.9609 3.42188 26.3828 3.15625 26.7422 2.82812H27.1641C27.1172 3.25 27.0859 3.70313 27.0703 4.1875C27.0547 4.65625 27.0469 5.07812 27.0469 5.45312V19.4219C27.0469 20.0781 27.1562 20.5469 27.375 20.8281C27.5938 21.0938 28.0469 21.2266 28.7344 21.2266V21.8125C28.3906 21.8125 28 21.8125 27.5625 21.8125C27.1406 21.7969 26.7188 21.7891 26.2969 21.7891C25.8594 21.7891 25.4297 21.7891 25.0078 21.7891C24.6016 21.7891 24.2422 21.7969 23.9297 21.8125V21.2266C24.6328 21.2266 25.0859 21.1094 25.2891 20.875C25.5078 20.625 25.6172 20.1406 25.6172 19.4219V6.34375ZM32.0859 6.34375C32.0859 5.9375 32.0625 5.61719 32.0156 5.38281C31.9844 5.13281 31.9062 4.9375 31.7812 4.79688C31.6719 4.67187 31.5078 4.59375 31.2891 4.5625C31.0859 4.53125 30.8203 4.51562 30.4922 4.51562V4.04688C30.9922 3.95312 31.4766 3.8125 31.9453 3.625C32.4297 3.42188 32.8516 3.15625 33.2109 2.82812H33.6328C33.5859 3.25 33.5547 3.70313 33.5391 4.1875C33.5234 4.65625 33.5156 5.07812 33.5156 5.45312V19.4219C33.5156 20.0781 33.625 20.5469 33.8438 20.8281C34.0625 21.0938 34.5156 21.2266 35.2031 21.2266V21.8125C34.8594 21.8125 34.4688 21.8125 34.0312 21.8125C33.6094 21.7969 33.1875 21.7891 32.7656 21.7891C32.3281 21.7891 31.8984 21.7891 31.4766 21.7891C31.0703 21.7891 30.7109 21.7969 30.3984 21.8125V21.2266C31.1016 21.2266 31.5547 21.1094 31.7578 20.875C31.9766 20.625 32.0859 20.1406 32.0859 19.4219V6.34375ZM38.4141 14.875C38.3672 15.1094 38.3438 15.3594 38.3438 15.625C38.3438 15.8906 38.3594 16.2344 38.3906 16.6562C38.4688 17.8438 38.8359 18.8438 39.4922 19.6562C40.1484 20.4531 41.0469 20.8516 42.1875 20.8516C42.9688 20.8516 43.6406 20.7031 44.2031 20.4062C44.7812 20.0938 45.2578 19.7109 45.6328 19.2578L45.9609 19.4688C45.5234 20.25 44.9297 20.9062 44.1797 21.4375C43.4453 21.9531 42.6172 22.2109 41.6953 22.2109C41.0234 22.2109 40.3984 22.0703 39.8203 21.7891C39.2578 21.5078 38.7656 21.1172 38.3438 20.6172C37.9219 20.1172 37.5859 19.5312 37.3359 18.8594C37.1016 18.1875 36.9844 17.4531 36.9844 16.6562C36.9844 15.6719 37.1094 14.7891 37.3594 14.0078C37.6094 13.2266 37.9453 12.5703 38.3672 12.0391C38.8047 11.4922 39.3125 11.0781 39.8906 10.7969C40.4844 10.5156 41.1172 10.375 41.7891 10.375C42.2578 10.375 42.7266 10.4531 43.1953 10.6094C43.6641 10.7656 44.0859 11 44.4609 11.3125C44.8359 11.6406 45.1406 12.0547 45.375 12.5547C45.6094 13.0391 45.7344 13.6172 45.75 14.2891C45.75 14.4766 45.7266 14.6172 45.6797 14.7109C45.6328 14.7891 45.5156 14.8438 45.3281 14.875H38.4141ZM43.4297 14.125C43.7109 14.125 43.9141 14.0859 44.0391 14.0078C44.1641 13.9141 44.2266 13.75 44.2266 13.5156C44.2266 13.2656 44.1641 13 44.0391 12.7188C43.9297 12.4375 43.7734 12.1797 43.5703 11.9453C43.3516 11.7109 43.0859 11.5156 42.7734 11.3594C42.4609 11.2031 42.1016 11.125 41.6953 11.125C40.8047 11.125 40.0859 11.4062 39.5391 11.9688C39.0078 12.5156 38.6562 13.2344 38.4844 14.125H43.4297ZM50.7656 2.82812C50.7188 3.25 50.6875 3.70313 50.6719 4.1875C50.6562 4.65625 50.6484 5.07812 50.6484 5.45312V12.5547C50.8984 12.3203 51.1875 12.0781 51.5156 11.8281C51.8594 11.5781 52.2109 11.3438 52.5703 11.125C52.9297 10.9062 53.2891 10.7266 53.6484 10.5859C54.0234 10.4453 54.3672 10.375 54.6797 10.375C55.3359 10.375 55.9375 10.5234 56.4844 10.8203C57.0312 11.1172 57.4922 11.5078 57.8672 11.9922C58.2578 12.4766 58.5547 13.0391 58.7578 13.6797C58.9766 14.3047 59.0859 14.9531 59.0859 15.625C59.0859 16.5156 58.9375 17.3594 58.6406 18.1562C58.3594 18.9531 57.9688 19.6562 57.4688 20.2656C56.9531 20.8594 56.3438 21.3359 55.6406 21.6953C54.9531 22.0391 54.1953 22.2109 53.3672 22.2109C52.6172 22.2109 51.9219 22.1016 51.2812 21.8828C50.6406 21.6484 50.1484 21.4297 49.8047 21.2266L49.2422 21.8828L48.8203 21.6953C48.9297 20.9609 49.0234 20.2188 49.1016 19.4688C49.1797 18.7031 49.2188 17.9375 49.2188 17.1719V6.34375C49.2188 5.9375 49.1953 5.61719 49.1484 5.38281C49.1172 5.13281 49.0391 4.9375 48.9141 4.79688C48.8047 4.67187 48.6406 4.59375 48.4219 4.5625C48.2188 4.53125 47.9531 4.51562 47.625 4.51562V4.04688C48.125 3.95312 48.6094 3.8125 49.0781 3.625C49.5625 3.42188 49.9844 3.15625 50.3438 2.82812H50.7656ZM50.6484 19.0234C50.6484 19.7578 50.875 20.3594 51.3281 20.8281C51.7812 21.2812 52.5 21.5078 53.4844 21.5078C54.2188 21.5078 54.8516 21.3672 55.3828 21.0859C55.9141 20.7891 56.3438 20.4141 56.6719 19.9609C57.0156 19.4922 57.2656 18.9766 57.4219 18.4141C57.5781 17.8359 57.6562 17.2578 57.6562 16.6797C57.6562 15.2109 57.3281 13.9922 56.6719 13.0234C56.0312 12.0547 55.1562 11.5703 54.0469 11.5703C53.4688 11.5703 52.8594 11.7656 52.2188 12.1562C51.5938 12.5469 51.0703 12.9609 50.6484 13.3984V19.0234ZM72.5625 16.2344C72.5625 17.0625 72.4141 17.8438 72.1172 18.5781C71.8203 19.2969 71.4219 19.9219 70.9219 20.4531C70.4219 21 69.8359 21.4297 69.1641 21.7422C68.5078 22.0547 67.8047 22.2109 67.0547 22.2109C66.2734 22.2109 65.5312 22.0781 64.8281 21.8125C64.125 21.5469 63.5078 21.1562 62.9766 20.6406C62.4453 20.1406 62.0234 19.5312 61.7109 18.8125C61.3984 18.0781 61.2422 17.2578 61.2422 16.3516C61.2422 15.5391 61.375 14.7734 61.6406 14.0547C61.9219 13.3203 62.3047 12.6797 62.7891 12.1328C63.2891 11.6016 63.875 11.1797 64.5469 10.8672C65.2188 10.5391 65.9531 10.375 66.75 10.375C67.5625 10.375 68.3203 10.5156 69.0234 10.7969C69.7422 11.0625 70.3594 11.4531 70.875 11.9688C71.3906 12.4688 71.7969 13.0859 72.0938 13.8203C72.4062 14.5391 72.5625 15.3438 72.5625 16.2344ZM70.8281 16.4922C70.8281 15.9141 70.7578 15.3047 70.6172 14.6641C70.4766 14.0078 70.25 13.4141 69.9375 12.8828C69.6094 12.3359 69.1875 11.8906 68.6719 11.5469C68.1719 11.1875 67.5547 11.0078 66.8203 11.0078C66.1172 11.0078 65.5156 11.1641 65.0156 11.4766C64.5312 11.7891 64.1406 12.1875 63.8438 12.6719C63.5469 13.1719 63.3281 13.7266 63.1875 14.3359C63.0625 14.9297 63 15.5156 63 16.0938C63 16.6406 63.0703 17.2344 63.2109 17.875C63.3516 18.5 63.5781 19.0859 63.8906 19.6328C64.2031 20.1797 64.6094 20.6406 65.1094 21.0156C65.625 21.375 66.2578 21.5547 67.0078 21.5547C67.7109 21.5547 68.3047 21.3984 68.7891 21.0859C69.2734 20.7734 69.6641 20.3672 69.9609 19.8672C70.2734 19.3828 70.4922 18.8438 70.6172 18.25C70.7578 17.6406 70.8281 17.0547 70.8281 16.4922ZM77.5547 10.3984C77.5078 10.8203 77.4766 11.2344 77.4609 11.6406C77.4609 12.0469 77.4609 12.3516 77.4609 12.5547C78.1641 12.0391 78.9219 11.5469 79.7344 11.0781C80.5469 10.6094 81.3281 10.375 82.0781 10.375C83.0156 10.375 83.6875 10.7188 84.0938 11.4062C84.5 12.0781 84.7031 12.8984 84.7031 13.8672V19.4219C84.7031 20.0781 84.8125 20.5469 85.0312 20.8281C85.25 21.0938 85.7109 21.2266 86.4141 21.2266V21.8125C86.1953 21.8125 85.9844 21.8125 85.7812 21.8125C85.5938 21.8125 85.4062 21.8047 85.2188 21.7891C85.0312 21.7891 84.8359 21.7891 84.6328 21.7891C84.4453 21.7734 84.2422 21.7656 84.0234 21.7656C83.7891 21.7656 83.5703 21.7734 83.3672 21.7891C83.1797 21.7891 82.9922 21.7891 82.8047 21.7891C82.6172 21.7891 82.4219 21.7969 82.2188 21.8125C82.0312 21.8125 81.8281 21.8125 81.6094 21.8125V21.2266C82.2812 21.2266 82.7266 21.0938 82.9453 20.8281C83.1641 20.5469 83.2734 20.0781 83.2734 19.4219V13.8438C83.2734 13.0625 83.0938 12.5 82.7344 12.1562C82.375 11.8125 81.7812 11.6406 80.9531 11.6406C80.7188 11.6562 80.4453 11.7188 80.1328 11.8281C79.8203 11.9219 79.5078 12.0391 79.1953 12.1797C78.8672 12.3359 78.5469 12.5078 78.2344 12.6953C77.9375 12.8828 77.6797 13.0703 77.4609 13.2578V19.4219C77.4609 20.0781 77.5703 20.5469 77.7891 20.8281C78.0078 21.0938 78.4688 21.2266 79.1719 21.2266V21.8125C78.9375 21.8125 78.7266 21.8125 78.5391 21.8125C78.3516 21.8125 78.1641 21.8047 77.9766 21.7891C77.7891 21.7891 77.5938 21.7891 77.3906 21.7891C77.2031 21.7734 77 21.7656 76.7812 21.7656C76.5469 21.7656 76.3281 21.7734 76.125 21.7891C75.9375 21.7891 75.75 21.7891 75.5625 21.7891C75.3594 21.7891 75.1562 21.7969 74.9531 21.8125C74.7656 21.8125 74.5625 21.8125 74.3438 21.8125V21.2266C75.0312 21.2266 75.4766 21.0938 75.6797 20.8281C75.8984 20.5469 76.0078 20.0781 76.0078 19.4219V13.9141C76.0078 13.4922 75.9922 13.1562 75.9609 12.9062C75.9453 12.6562 75.8906 12.4609 75.7969 12.3203C75.7031 12.1797 75.5625 12.0859 75.375 12.0391C75.1875 11.9922 74.9297 11.9688 74.6016 11.9688V11.4766C75.1016 11.3984 75.5547 11.2812 75.9609 11.125C76.3828 10.9688 76.7656 10.7266 77.1094 10.3984H77.5547Z" fill="black"/>
<path d="M2.976 54V30.416H5.856L13.984 51.024L22.144 30.416H24.992V54H23.2V33.264H22.784L14.496 54H13.472L5.216 33.264H4.8V54H2.976ZM30.816 35.44V31.92H32.576V35.44H30.816ZM30.816 54V37.264H32.576V54H30.816ZM38.2535 54V37.264H40.0135V40.304L42.8615 37.264H49.2295L52.3655 40.432V54H50.6055V40.88L48.5255 38.736H43.3735L40.0135 42.224V54H38.2535ZM57.8473 35.44V31.92H59.6073V35.44H57.8473ZM57.8473 54V37.264H59.6073V54H57.8473ZM64.2928 45.232V43.696H74.8528V45.232H64.2928ZM80.4955 59.984V58.448H89.1675L91.2475 56.336V51.152L88.5915 54H82.2235L79.0875 50.832V40.432L82.2235 37.264H88.5915L91.2475 40.112V37.264H93.0075V56.816L89.8715 59.984H80.4955ZM88.0795 52.528L91.2475 49.232V42.064L88.0795 38.736H82.9275L80.8475 40.848V50.416L82.9275 52.528H88.0795ZM100.42 54L97.2838 50.832V46.832L100.42 43.664H109.316V40.912L107.236 38.8H99.3958V37.264H107.972L111.108 40.432V54H109.348L109.316 51.216L106.564 54H100.42ZM101.124 52.528H106.116L109.316 49.328V45.136H101.124L99.0438 47.248V50.416L101.124 52.528ZM116.566 54V37.264H118.326V40.304L121.174 37.264H127.542L130.486 40.24L133.238 37.264H139.606L142.742 40.432V54H140.982V40.88L138.902 38.736H133.75L130.678 41.936V54H128.918V40.88L126.87 38.736H121.686L118.326 42.256V54H116.566ZM150.942 54L147.806 50.832V40.432L150.942 37.264H158.238L161.374 40.432V46.288H149.566V50.352L151.646 52.464H161.086V54H150.942ZM149.566 44.816H159.614V40.848L157.534 38.736H151.646L149.566 40.848V44.816ZM166.405 54V52.464H175.397L177.093 50.768V47.824L175.429 46.128H168.325L165.733 43.568V39.952L168.389 37.264H177.445V38.8H169.189L167.493 40.496V42.96L169.125 44.624H176.261L178.853 47.216V51.312L176.197 54H166.405Z" fill="black"/>
</g>
<defs>
<clipPath id="clip0_1_2">
<rect width="181" height="60" fill="white"/>
</clipPath>
</defs>
</svg>
